<?xml version="1.0" standalone="no"?>
<!DOCTYPE svg PUBLIC "-//W3C//DTD SVG 20010904//EN"
 "http://www.w3.org/TR/2001/REC-SVG-20010904/DTD/svg10.dtd">
<svg version="1.0" xmlns="http://www.w3.org/2000/svg"
 width="612.000000pt" height="408.000000pt" viewBox="0 0 612.000000 408.000000"
 preserveAspectRatio="xMidYMid meet">

<g transform="translate(0.000000,408.000000) scale(0.100000,-0.100000)"
fill="#000000" stroke="none">
<path d="M3690 3064 c-19 -2 -134 -11 -255 -19 -219 -16 -552 -46 -715 -65
-180 -21 -559 -71 -645 -85 -49 -8 -153 -24 -230 -35 -254 -38 -809 -140 -801
-148 2 -1 172 19 377 47 635 84 1012 111 1564 111 469 0 706 -25 934 -100 225
-73 312 -155 335 -314 5 -34 -13 -109 -38 -156 -23 -45 -23 -45 -5 -80 11 -19
19 -48 19 -65 -1 -45 -34 -109 -74 -141 l-35 -29 29 -27 c17 -15 33 -41 36
-57 5 -25 9 -29 24 -21 12 6 25 41 40 107 12 54 27 103 32 110 9 12 113 12
125 0 3 -3 0 -27 -5 -54 -6 -26 -9 -49 -7 -51 2 -2 18 4 35 14 32 20 35 28 66
164 24 110 24 110 96 110 l61 0 -7 -50 c-4 -28 -9 -57 -13 -66 -5 -15 -3 -15
24 0 25 12 33 26 43 66 l12 50 55 0 c52 0 58 3 126 59 100 83 184 183 225 269
31 64 34 79 30 137 -10 163 -144 235 -549 296 -125 19 -191 23 -509 24 -201 2
-381 1 -400 -1z m763 -795 c21 -26 22 -61 3 -98 -29 -56 -127 -70 -173 -25
-21 21 -25 32 -20 66 6 47 39 86 76 90 43 5 95 -10 114 -33z"/>
<path d="M4329 2260 c-25 -15 -32 -58 -14 -86 31 -47 115 -18 115 40 0 47 -56
72 -101 46z"/>
<path d="M998 2703 c7 -3 16 -2 19 1 4 3 -2 6 -13 5 -11 0 -14 -3 -6 -6z"/>
<path d="M1395 2314 c-74 -27 -134 -108 -135 -181 0 -48 28 -110 61 -134 16
-11 66 -35 112 -53 70 -27 82 -35 85 -57 7 -58 -81 -84 -184 -54 -32 9 -67 24
-77 33 -22 20 -25 16 -44 -54 -14 -55 -14 -59 4 -71 66 -49 253 -62 338 -24
93 41 135 100 135 188 0 79 -24 106 -148 166 -93 45 -107 55 -110 79 -8 71
143 78 258 11 3 -2 12 24 19 58 14 71 15 70 -63 94 -62 19 -198 18 -251 -1z"/>
<path d="M1820 2320 c0 -9 -39 -252 -85 -532 l-12 -78 81 0 81 0 25 151 c26
159 35 179 86 179 43 0 46 -19 24 -157 -11 -70 -23 -138 -25 -150 -5 -22 -3
-23 75 -23 44 0 80 1 80 3 0 1 11 67 25 145 33 187 33 241 0 272 -36 33 -108
38 -170 11 -26 -11 -48 -21 -50 -21 -1 0 4 39 11 88 20 133 26 122 -66 122
-47 0 -80 -4 -80 -10z"/>
<path d="M3747 2243 c-3 -15 -31 -138 -61 -273 -31 -135 -56 -253 -56 -264 0
-18 8 -18 168 -13 179 5 245 19 293 60 90 77 80 185 -19 218 l-35 12 34 16
c90 44 126 94 116 158 -7 44 -20 59 -71 86 -36 19 -61 22 -202 25 l-161 4 -6
-29z m295 -43 c65 -18 86 -74 47 -124 -37 -47 -75 -59 -196 -64 -129 -5 -123
-10 -99 87 8 31 17 68 20 84 l6 27 93 0 c50 0 109 -5 129 -10z m1 -273 c22
-14 27 -25 27 -58 0 -84 -75 -119 -255 -119 -69 0 -95 3 -95 13 0 14 39 177
44 186 2 3 60 4 128 1 96 -4 130 -9 151 -23z"/>
<path d="M4541 2203 c-6 -27 -33 -148 -61 -270 -27 -123 -50 -227 -50 -233 0
-12 57 -14 64 -2 2 4 30 125 61 267 31 143 58 266 60 273 3 8 -7 12 -29 12
-33 0 -35 -2 -45 -47z"/>
<path d="M4736 2233 c-11 -35 -116 -515 -116 -530 0 -10 9 -13 32 -11 l31 3
62 278 62 277 -33 0 c-22 0 -34 -6 -38 -17z"/>
<path d="M4900 1948 c-35 -139 -65 -258 -67 -265 -4 -9 3 -10 26 -3 17 5 43 5
59 1 15 -5 37 -4 50 0 12 5 46 4 77 -3 33 -6 59 -7 64 -2 4 5 34 113 65 239
32 127 60 238 63 248 4 16 2 17 -15 8 -14 -7 -24 -7 -38 3 -13 10 -24 11 -41
3 -16 -7 -30 -7 -47 1 -18 8 -34 8 -60 0 -30 -9 -39 -9 -54 6 -18 16 -21 8
-82 -236z m140 210 c21 8 38 8 50 2 9 -5 32 -7 51 -4 21 3 41 0 53 -8 17 -14
16 -22 -33 -214 -28 -109 -54 -210 -57 -223 -6 -21 -10 -22 -48 -16 -39 8 -49
8 -106 5 -48 -2 -90 3 -90 12 0 4 25 109 56 233 51 204 58 223 74 213 12 -8
26 -8 50 0z"/>
<path d="M5023 2073 c15 -2 37 -2 50 0 12 2 0 4 -28 4 -27 0 -38 -2 -22 -4z"/>
<path d="M5017 2033 c18 -2 50 -2 70 0 21 2 7 4 -32 4 -38 0 -55 -2 -38 -4z"/>
<path d="M5007 1993 c18 -2 50 -2 70 0 21 2 7 4 -32 4 -38 0 -55 -2 -38 -4z"/>
<path d="M4997 1953 c18 -2 50 -2 70 0 21 2 7 4 -32 4 -38 0 -55 -2 -38 -4z"/>
<path d="M4988 1913 c23 -2 59 -2 80 0 20 2 1 4 -43 4 -44 0 -61 -2 -37 -4z"/>
<path d="M4973 1873 c20 -2 54 -2 75 0 20 2 3 4 -38 4 -41 0 -58 -2 -37 -4z"/>
<path d="M4963 1833 c20 -2 54 -2 75 0 20 2 3 4 -38 4 -41 0 -58 -2 -37 -4z"/>
<path d="M4957 1793 c18 -2 50 -2 70 0 21 2 7 4 -32 4 -38 0 -55 -2 -38 -4z"/>
<path d="M2375 2149 c-65 -13 -75 -23 -75 -76 0 -42 2 -45 23 -39 12 4 56 10
98 13 87 7 119 -5 119 -42 0 -14 -1 -25 -2 -25 -2 0 -44 -5 -95 -9 -105 -11
-162 -36 -193 -87 -22 -35 -26 -103 -9 -136 27 -50 137 -63 212 -24 44 22 47
22 47 5 0 -17 8 -19 69 -19 58 0 71 3 75 18 10 33 46 272 46 307 0 48 -22 88
-57 105 -35 17 -192 22 -258 9z m141 -281 c-10 -59 -21 -69 -75 -66 -43 3 -46
5 -49 34 -3 35 9 48 58 62 68 20 73 17 66 -30z"/>
<path d="M3015 2148 c-11 -6 -32 -22 -47 -36 l-28 -26 0 32 0 32 -74 0 c-73 0
-75 0 -80 -27 -10 -48 -66 -390 -66 -402 0 -7 28 -11 78 -11 l79 0 21 126 c11
69 27 133 34 141 18 22 87 53 120 53 33 0 36 4 44 74 l7 56 -34 0 c-19 0 -43
-6 -54 -12z"/>
<path d="M3258 2146 c-116 -41 -178 -150 -166 -290 5 -64 27 -101 79 -131 43
-25 193 -33 259 -13 45 14 45 14 48 62 3 47 2 48 -20 42 -13 -4 -55 -10 -95
-13 -67 -5 -73 -4 -97 20 -14 14 -26 35 -26 47 0 19 6 20 144 20 165 0 156 -6
156 105 0 76 -24 119 -83 145 -50 23 -144 26 -199 6z m130 -98 c7 -7 12 -29
12 -50 l0 -38 -70 0 c-64 0 -70 2 -70 21 0 31 53 79 87 79 16 0 34 -5 41 -12z"/>
<path d="M4306 2063 c-13 -41 -68 -291 -73 -330 -6 -42 -5 -43 25 -43 36 0 29
-16 77 195 20 88 39 168 41 178 4 14 -1 17 -30 17 -24 0 -36 -5 -40 -17z"/>
<path d="M3515 1659 c-155 -129 -364 -281 -620 -453 -154 -103 -284 -193 -290
-198 -13 -14 405 200 600 307 188 103 529 295 575 323 l35 22 -117 0 c-116 0
-117 0 -120 24 -3 24 -5 23 -63 -25z"/>
</g>
</svg>
